<?xml version="1.0" encoding="UTF-8"?><svg version="1.1" xmlns="http://www.w3.org/2000/svg" xmlns:xlink="http://www.w3.org/1999/xlink" x="0px" y="0px" viewBox="0 0 1600 1200" style="enable-background:new 0 0 1600 1200;" xml:space="preserve" width="1600px" height="1200px">


<g id="laptop">
	<path d="M718,739.6c-61.7-1.6-123.5-3.1-185.2-4.7c36.6-35,73.1-70.1,109.7-105.1c42.2,2.2,84.5,4.4,126.7,6.6
		C752.1,670.9,735.1,705.2,718,739.6z" style="fill:#FFFFFF;stroke:#191919;stroke-width:2;stroke-miterlimit:10;"/>
	<path d="M640.4,629.1c-35.9,34.7-71.8,69.5-107.7,104.2c-1.6-55.6-3.3-111.3-4.9-166.9c36.4-23,72.8-46,109.2-69
		C638,541.3,639.2,585.2,640.4,629.1z" style="fill:#FFFFFF;stroke:#191919;stroke-width:2;stroke-miterlimit:10;"/>
	<g>
		<g>
			<path d="M531.1,571.7c2.9,49.5,4.8,99.1,5.8,148.7c0,1,1.5,1,1.5,0c-1-49.6-2.9-99.2-5.8-148.7
				C532.5,570.8,531,570.8,531.1,571.7L531.1,571.7z" style="fill:#191919;"/>
		</g>
	</g>
	<g>
		<g>
			<path d="M531.9,571.9c33.5-21.8,67-43.6,100.5-65.4c0.8-0.5,0.1-1.8-0.8-1.3c-33.5,21.8-67,43.6-100.5,65.4
				C530.3,571.2,531,572.5,531.9,571.9L531.9,571.9z" style="fill:#191919;"/>
		</g>
	</g>
	<g>
		<g>
			<path d="M632,506.4c-0.1,39.9,1.1,79.9,3.7,119.7c0.1,1,1.6,1,1.5,0c-2.5-39.9-3.8-79.8-3.7-119.7
				C633.5,505.5,632,505.5,632,506.4L632,506.4z" style="fill:#191919;"/>
		</g>
	</g>
	<g>
		<g>
			<path d="M537.9,722.5c32.8-31.7,65.7-63.4,98.5-95c0.7-0.7-0.4-1.7-1.1-1.1c-32.8,31.7-65.7,63.4-98.5,95
				C536.2,722.1,537.2,723.2,537.9,722.5L537.9,722.5z" style="fill:#191919;"/>
		</g>
	</g>
	<g>
		<g>
			<path d="M689.8,705.5c6.1-9.7,12.2-19.5,18.1-29.4c0.5-0.8-0.8-1.6-1.3-0.8c-5.9,9.9-12,19.7-18.1,29.4
				C687.9,705.5,689.2,706.3,689.8,705.5L689.8,705.5z" style="fill:#191919;"/>
		</g>
	</g>
	<g>
		<g>
			<path d="M707.5,675.8c7.9,0.3,15.8,0.3,23.7-0.1c1,0,1-1.5,0-1.5c-7.9,0.3-15.8,0.3-23.7,0.1
				C706.5,674.3,706.5,675.8,707.5,675.8L707.5,675.8z" style="fill:#191919;"/>
		</g>
	</g>
	<g>
		<g>
			<path d="M730.2,675.3c-4.5,9.8-9.1,19.6-13.7,29.4c-0.4,0.9,0.9,1.6,1.3,0.8c4.6-9.8,9.2-19.6,13.7-29.4
				C731.9,675.1,730.6,674.4,730.2,675.3L730.2,675.3z" style="fill:#191919;"/>
		</g>
	</g>
	<g>
		<g>
			<path d="M689.3,706.3c8.8,1.3,18.1,0.7,27,0.3c1,0,1-1.5,0-1.5c-8.7,0.4-17.9,1-26.6-0.2
				C688.7,704.7,688.3,706.2,689.3,706.3L689.3,706.3z" style="fill:#191919;"/>
		</g>
	</g>
	<g>
		<g>
			<path d="M722.1,675.4c-4,10-8.6,19.7-13.8,29.1c-0.5,0.8,0.8,1.6,1.3,0.8c5.2-9.6,9.9-19.4,14-29.5
				C723.9,674.9,722.5,674.5,722.1,675.4L722.1,675.4z" style="fill:#191919;"/>
		</g>
	</g>
	<g>
		<g>
			<path d="M577.2,720.7c22-27.2,44.8-53.8,68.3-79.8c0.6-0.7-0.4-1.8-1.1-1.1c-23.5,25.9-46.3,52.5-68.3,79.8
				C575.5,720.4,576.6,721.4,577.2,720.7L577.2,720.7z" style="fill:#191919;"/>
		</g>
	</g>
	<g>
		<g>
			<path d="M603.8,722.4c19.7-27.5,40.5-54.1,62.3-79.9c0.6-0.7-0.4-1.8-1.1-1.1c-21.9,25.9-42.7,52.6-62.5,80.2
				C601.9,722.4,603.2,723.2,603.8,722.4L603.8,722.4z" style="fill:#191919;"/>
		</g>
	</g>
	<g>
		<g>
			<path d="M632.4,726.5c17.1-28.6,35.8-56.2,56-82.7c0.6-0.8-0.7-1.5-1.3-0.8c-20.2,26.5-38.9,54.1-56,82.7
				C630.6,726.5,631.9,727.3,632.4,726.5L632.4,726.5z" style="fill:#191919;"/>
		</g>
	</g>
	<g>
		<g>
			<path d="M656.4,729c16.8-31.3,36.7-60.8,59.5-88c0.6-0.7-0.4-1.8-1.1-1.1c-22.9,27.3-42.9,56.9-59.8,88.3
				C654.6,729.1,655.9,729.9,656.4,729L656.4,729z" style="fill:#191919;"/>
		</g>
	</g>
	<g>
		<g>
			<path d="M590,704.5c25.6-2.7,51.2,0.5,76.7,3.9c1,0.1,0.9-1.4,0-1.5c-25.4-3.4-51-6.7-76.7-3.9
				C589.1,703.1,589.1,704.6,590,704.5L590,704.5z" style="fill:#191919;"/>
		</g>
	</g>
	<g>
		<g>
			<path d="M602.9,689.9c24.2-0.9,48.4,0.9,72.2,5.5c0.9,0.2,1.3-1.3,0.4-1.4c-23.9-4.6-48.3-6.4-72.6-5.5
				C602,688.4,602,689.9,602.9,689.9L602.9,689.9z" style="fill:#191919;"/>
		</g>
	</g>
	<g>
		<g>
			<path d="M614.5,675.8c23.3-1.5,46.6,0.6,69.3,6.2c0.9,0.2,1.3-1.2,0.4-1.4c-22.8-5.7-46.2-7.8-69.7-6.3
				C613.5,674.4,613.5,675.9,614.5,675.8L614.5,675.8z" style="fill:#191919;"/>
		</g>
	</g>
	<g>
		<g>
			<path d="M626.5,661.7c22.4,0.1,44.6,2.4,66.5,6.9c0.9,0.2,1.3-1.3,0.4-1.4c-22-4.5-44.4-6.8-66.9-6.9
				C625.6,660.2,625.6,661.7,626.5,661.7L626.5,661.7z" style="fill:#191919;"/>
		</g>
	</g>
	<g>
		<g>
			<path d="M638.4,648.6c21.3,0.4,42.5,2.9,63.2,7.6c0.9,0.2,1.3-1.2,0.4-1.4c-20.9-4.7-42.2-7.3-63.6-7.6
				C637.4,647.1,637.4,648.6,638.4,648.6L638.4,648.6z" style="fill:#191919;"/>
		</g>
	</g>
	<g>
		<g>
			<path d="M707,663.8c-9.8,14.4-19.5,28.8-29.3,43.2c-0.5,0.8,0.8,1.6,1.3,0.8c9.8-14.4,19.5-28.8,29.3-43.2
				C708.9,663.7,707.6,663,707,663.8L707,663.8z" style="fill:#191919;"/>
		</g>
	</g>
	<g>
		<g>
			<path d="M541.4,642c12.5-5.3,26-2.3,39.2-2.5c11.1-0.1,21.7-3.2,31.2-8.8c0.8-0.5,0.1-1.8-0.8-1.3
				c-11.7,6.9-24.1,9.1-37.5,8.5c-11.2-0.5-22.3-1.6-32.9,2.9C539.8,641.1,540.5,642.4,541.4,642L541.4,642z" style="fill:#191919;"/>
		</g>
	</g>
	<g>
		<g>
			<path d="M575.1,635.8c21.4-12.1,31.3-37.6,53.6-48.3c0.9-0.4,0.1-1.7-0.8-1.3c-22.4,10.8-32.2,36.2-53.6,48.3
				C573.5,635,574.2,636.3,575.1,635.8L575.1,635.8z" style="fill:#191919;"/>
		</g>
	</g>
	<g>
		<g>
			<path d="M602.3,564.5c-3.7-2.9-3.1-7.6-1-11.3c1-1.8,2.5-3.7,4.2-4.8c3.1-2,6-0.4,8.4,1.7c0.7,0.6,1.8-0.4,1.1-1.1
				c-5-4.2-9.7-3.8-13.8,1.6c-3.3,4.4-5,11,0,15C602,566.2,603.1,565.1,602.3,564.5L602.3,564.5z" style="fill:#191919;"/>
		</g>
	</g>
</g>


</svg>