<?xml version="1.0" encoding="UTF-8"?><svg version="1.1" xmlns="http://www.w3.org/2000/svg" xmlns:xlink="http://www.w3.org/1999/xlink" x="0px" y="0px" viewBox="0 0 1600 1200" style="enable-background:new 0 0 1600 1200;" xml:space="preserve" width="1600px" height="1200px">

<g id="background">
	<g>
		<g>
			<path d="M497.2,978.6c91.6,0,183.2,0,274.8,0c91.3,0,182.6,0,273.8,0c51.6,0,103.3,0,154.9,0c1.9,0,1.9-3,0-3
				c-91.6,0-183.2,0-274.8,0c-91.3,0-182.6,0-273.8,0c-51.6,0-103.3,0-154.9,0C495.3,975.6,495.3,978.6,497.2,978.6L497.2,978.6z" style="fill:#E8E8E8;"/>
		</g>
	</g>
	<g>
		<g>
			<path d="M1219.2,916.4c-0.8,28.8,2.1,57.6,8.7,85.7c0.4,1.9,3.3,1.1,2.9-0.8c-6.5-27.8-9.4-56.3-8.5-84.9
				C1222.2,914.5,1219.2,914.5,1219.2,916.4L1219.2,916.4z" style="fill:#E8E8E8;"/>
		</g>
	</g>
	<g>
		<g>
			<path d="M1338.3,918.7c2.8,26.6,1.1,53.5-5,79.5c-0.4,1.9,2.4,2.7,2.9,0.8c6.2-26.3,8-53.4,5.1-80.3
				C1341.1,916.8,1338.1,916.8,1338.3,918.7L1338.3,918.7z" style="fill:#E8E8E8;"/>
		</g>
	</g>
	<g>
		<g>
			<path d="M1229.1,1004.9c34.6,8.8,71.2,7.6,105.1-3.6c1.8-0.6,1-3.5-0.8-2.9c-33.5,11-69.4,12.3-103.5,3.6
				C1228,1001.6,1227.2,1004.5,1229.1,1004.9L1229.1,1004.9z" style="fill:#E8E8E8;"/>
		</g>
	</g>
	<g>
		<g>
			<path d="M1220.6,917.8c38.9,8.3,79.2,8.1,118-0.5c1.9-0.4,1.1-3.3-0.8-2.9c-38.3,8.5-78.1,8.6-116.4,0.5
				C1219.5,914.5,1218.7,917.4,1220.6,917.8L1220.6,917.8z" style="fill:#E8E8E8;"/>
		</g>
	</g>
	<g>
		<g>
			<path d="M1244.3,918.9c-5.2-11.7-0.5-26,3.4-37.5c4-11.9,9.7-23.2,16.7-33.6c-0.8,0.1-1.6,0.2-2.4,0.3
				c2.3,2.6,4.8,4.4,7.9,5.9c1.2,0.5,2.5-0.3,2.2-1.7c-1.2-5.4-3.3-10.7-0.9-16.1c1.7-3.8,4.1-7.6,6.1-11.2
				c-0.7,0.2-1.4,0.4-2.1,0.5c2.1,1.3,4.2,2.5,6.3,3.8c1.4,0.9,2.6-0.8,2.1-2.1c-2.1-4.6-3.5-9.2-0.6-13.8c1.7-2.8,3.9-5.3,5.8-7.9
				c4.2-5.6,8.6-11.2,13-16.7c8.4-10.5,17.1-20.7,26.1-30.7c-0.8-0.1-1.6-0.2-2.4-0.3c12.8,16.8,20.9,36.9,23.1,57.9
				c1.1,10.1,0.8,20.5-1,30.5c-0.9,5.1-2.2,10.1-3.8,15c-0.3,1-0.7,2-1,2.9c-1.1,2.8-2.9,4-5.8,4.6c-2,0.4-3.1,0.1-4.8,1.4
				c-0.8,0.6-1,1.6-0.3,2.4c2.2,2.3,3.1,2.7,2.3,5.8c-0.5,2-1.7,4.1-2.6,6.1c-1.8,4-3.8,7.9-5.9,11.7c-4.3,7.8-9.2,15.2-14.7,22.2
				c-1.2,1.5,0.9,3.6,2.1,2.1c10.6-13.6,19-28.5,25.3-44.5c0.2-0.5,0-1.1-0.4-1.5c-1.3-1.3-2.6-2.7-4-4c-0.1,0.8-0.2,1.6-0.3,2.4
				c2.3-1.6,4.9-0.5,7.3-1.5c1.9-0.7,2.9-2.1,3.7-3.9c2.2-4.7,3.6-10.1,4.8-15.1c2.5-11,3.3-22.3,2.5-33.5
				c-1.7-22.6-10-44.5-23.8-62.5c-0.5-0.7-1.6-1.1-2.4-0.3c-11.1,12.3-21.8,25-32,38c-4.6,5.8-9.5,11.6-13.5,17.9
				c-3.6,5.7-1.9,11.1,0.6,16.9c0.7-0.7,1.4-1.4,2.1-2.1c-2.1-1.3-4.2-2.5-6.3-3.8c-0.7-0.4-1.7-0.2-2.1,0.5
				c-2.5,4.6-6.4,9.7-7.8,14.8c-1.2,4.5,1.3,10.4,2.3,14.8c0.7-0.6,1.5-1.1,2.2-1.7c-2.9-1.3-5.2-3-7.3-5.4
				c-0.7-0.8-1.9-0.5-2.4,0.3c-7.8,11.6-13.9,24.3-18.1,37.7c-3.6,11.6-7.1,24.8-2,36.4C1242.5,922.1,1245.1,920.6,1244.3,918.9
				L1244.3,918.9z" style="fill:#E8E8E8;"/>
		</g>
	</g>
	<g>
		<g>
			<path d="M1325.7,780.8c-4,45.3-35,81.6-47.9,124.2c-0.6,1.9,2.3,2.6,2.9,0.8c12.9-42.9,44-79.3,48-125
				C1328.9,778.8,1325.8,778.9,1325.7,780.8L1325.7,780.8z" style="fill:#E8E8E8;"/>
		</g>
	</g>
	<g>
		<g>
			<path d="M1287.9,804.9c3.2,16.5,6.9,32.8,11.1,49c0.5,1.9,3.4,1.1,2.9-0.8c-4.2-16.2-7.9-32.6-11.1-49
				C1290.5,802.2,1287.6,803,1287.9,804.9L1287.9,804.9z" style="fill:#E8E8E8;"/>
		</g>
	</g>
	<g>
		<g>
			<path d="M1321.7,815.5c8.7-6.3,16.2-13.8,22.7-22.5c1.2-1.5-1.4-3-2.6-1.5c-6.1,8.2-13.3,15.4-21.6,21.4
				C1318.7,814.1,1320.2,816.7,1321.7,815.5L1321.7,815.5z" style="fill:#E8E8E8;"/>
		</g>
	</g>
	<g>
		<g>
			<path d="M1312.4,772.7c2.7,8.6,4.3,19.1,10.9,25.6c1.4,1.4,3.5-0.8,2.1-2.1c-6.1-6.1-7.7-16.4-10.2-24.3
				C1314.7,770.1,1311.8,770.9,1312.4,772.7L1312.4,772.7z" style="fill:#E8E8E8;"/>
		</g>
	</g>
	<g>
		<g>
			<path d="M1238.3,918.1c-6.1-4.8-9.8-11.5-12.9-18.5c-3.5-8.2-6.5-16.6-9.2-25.1c-5.1-16.3-8.8-33.1-11-50
				c-4.5-35.4-0.9-71.2-5.2-106.7c-0.9,0.3-1.9,0.5-2.8,0.8c11.2,25.2,37.4,40.3,59.2,55.3c-0.2-0.7-0.4-1.4-0.5-2.1
				c-3,4.3-6,8.6-9,12.9c-0.7,1,0.2,2.3,1.3,2.3c3.9,0,7.3-0.5,11-1.8c-0.6-0.2-1.1-0.5-1.7-0.7c3.7,5.7,7.4,11.4,11.1,17.1
				c0.1-0.6,0.2-1.2,0.2-1.8c-1.8,1.7-3.3,3.6-4.8,5.7c-0.5,0.7,0,2.1,0.9,2.2c8.2,1.2,11.1,9,13.2,16c0.6,1.8,3.5,1.1,2.9-0.8
				c-2.5-7.9-6.1-16.8-15.3-18.1c0.3,0.7,0.6,1.5,0.9,2.2c1.3-2,2.6-3.4,4.3-5c0.5-0.4,0.6-1.3,0.2-1.8c-3.7-5.7-7.4-11.4-11.1-17.1
				c-0.3-0.5-1-0.9-1.7-0.7c-3.4,1.1-6.7,1.7-10.2,1.6c0.4,0.8,0.9,1.5,1.3,2.3c3-4.3,6-8.6,9-12.9c0.5-0.7,0.1-1.6-0.5-2.1
				c-21.4-14.7-47.1-29.4-58.1-54.2c-0.6-1.3-3-0.7-2.8,0.8c4.4,36.8,0.5,74,5.7,110.7c2.5,17.7,6.6,35.1,12.3,52
				c4.6,13.7,9.4,30.4,21.1,39.7C1237.7,921.4,1239.8,919.3,1238.3,918.1L1238.3,918.1z" style="fill:#E8E8E8;"/>
		</g>
	</g>
	<g>
		<g>
			<path d="M1197.8,720.8c8.1,22.4,14.9,46,25.8,67.3c5.4,10.5,11.3,20.8,16.4,31.5c5.5,11.6,10.4,23.4,15.4,35.1
				c0.7,1.8,3.3,0.2,2.6-1.5c-4.7-11.2-9.5-22.4-14.6-33.4c-5-10.8-10.8-21.1-16.4-31.6c-11.2-21.4-18.1-45.4-26.4-68.1
				C1200,718.2,1197.1,719,1197.8,720.8L1197.8,720.8z" style="fill:#E8E8E8;"/>
		</g>
	</g>
	<g>
		<g>
			<path d="M1201.6,796.8c10.8,1.3,22.6,1.9,30.8,10c1.4,1.4,3.5-0.8,2.1-2.1c-8.8-8.6-21.3-9.4-32.9-10.8
				C1199.7,793.6,1199.7,796.6,1201.6,796.8L1201.6,796.8z" style="fill:#E8E8E8;"/>
		</g>
	</g>
	<g>
		<g>
			<path d="M1230.5,756.3c-1.8,6.5-3,13.2-3.5,20c-0.4,5.8-1.1,12.6,0.9,18.2c0.6,1.8,3.5,1,2.9-0.8
				c-1.9-5.3-1.2-11.9-0.8-17.5c0.5-6.5,1.7-12.9,3.4-19.2C1233.9,755.2,1231,754.4,1230.5,756.3L1230.5,756.3z" style="fill:#E8E8E8;"/>
		</g>
	</g>
	<g>
		<g>
			<path d="M1208.4,851.3c7.8,0.2,15.3,0.3,22.9,2.4c7.5,2.1,14.9,4.3,22.4,6.5c1.9,0.5,2.7-2.4,0.8-2.9
				c-8-2.3-15.9-4.8-24-6.9c-7.3-1.9-14.6-1.8-22.1-2C1206.5,848.2,1206.5,851.2,1208.4,851.3L1208.4,851.3z" style="fill:#E8E8E8;"/>
		</g>
	</g>
	<g>
		<g>
			<path d="M1317.8,915.3c6.7-0.9,13.3-0.9,20,0c-0.3-0.7-0.6-1.5-0.9-2.2c-0.6,0.9-6.6,1-7.8,1.1
				c-2.7,0.4-5.5,0.8-8.2,1.4c-0.4,0.1-3.1,0.4-3.2,0.7c0.2-0.5,4.2-0.4,4.8-0.4c2.9,0,5.8,0.3,8.7,0.5c0-1,0-2,0-3
				c-2.5-0.1-4.7,0.2-7.2,0.9c-1.6,0.4-1.3,2.9,0.4,2.9c3.9,0,7.4-0.8,11.2-1.8c1.9-0.5,1.1-3.4-0.8-2.9c-3.4,0.9-6.8,1.7-10.4,1.7
				c0.1,1,0.3,2,0.4,2.9c2.1-0.6,4.2-0.8,6.4-0.8c1.9,0,1.9-2.9,0-3c-4.4-0.2-10.8-1.8-14.8,0.7c-1.6,1-3.9,3.6-1.8,5.2
				c0.9,0.7,1.9,0.3,3,0.2c3-0.6,5.9-1.3,8.9-1.8c3.5-0.6,10.5,0.3,12.9-3c0.5-0.7,0-2.1-0.9-2.2c-7-1-13.8-1-20.8-0.1
				C1315.9,912.5,1315.9,915.5,1317.8,915.3L1317.8,915.3z" style="fill:#E8E8E8;"/>
		</g>
	</g>
	<g>
		<g>
			<path d="M1221.9,917.2c1.4-0.4,2.8-0.7,4.2-0.8c0.7,0,1.3-0.1,2,0c0.3,0,1.7-0.1,1.8,0c-0.1-0.5-0.3-1-0.4-1.5
				c0,0.1-0.1,0.2-0.1,0.2c0.6-0.3,1.2-0.7,1.8-1c-0.1,0-0.2,0-0.2,0c0.3,0.3,0.7,0.7,1,1c0-0.1,0-0.2-0.1-0.2
				c-0.5-1.9-3.3-1.1-2.9,0.8c0,0.1,0,0.2,0.1,0.2c0.1,0.5,0.6,0.9,1,1c0.1,0,0.2,0,0.2,0c0.8,0.2,1.5-0.2,1.8-1
				c0-0.1,0.1-0.2,0.1-0.2c0.2-0.5,0-1.1-0.4-1.5c-1.1-1.1-3.5-0.9-4.9-0.9c-2,0-4.1,0.4-6,0.9
				C1219.3,914.8,1220.1,917.7,1221.9,917.2L1221.9,917.2z" style="fill:#E8E8E8;"/>
		</g>
	</g>
	<g>
		<g>
			<path d="M1224.2,937.3c36.5,6.3,74.4,9.3,110.4-1.5c1.8-0.6,1.1-3.4-0.8-2.9c-35.4,10.6-72.8,7.7-108.8,1.5
				C1223.1,934.1,1222.3,937,1224.2,937.3L1224.2,937.3z" style="fill:#E8E8E8;"/>
		</g>
	</g>
	<g>
		<g>
			<path d="M1349.9,978.4c64.1,0,128.3,0,192.4,0c1.9,0,1.9-3,0-3c-64.1,0-128.3,0-192.4,0
				C1347.9,975.4,1347.9,978.4,1349.9,978.4L1349.9,978.4z" style="fill:#E8E8E8;"/>
		</g>
	</g>
	<g>
		<g>
			<path d="M1301.4,1042.7c60.4,0,120.9,0,181.3,0c1.9,0,1.9-3,0-3c-60.4,0-120.9,0-181.3,0
				C1299.5,1039.7,1299.5,1042.7,1301.4,1042.7L1301.4,1042.7z" style="fill:#E8E8E8;"/>
		</g>
	</g>
	<g>
		<g>
			<path d="M1328.9,1042.4c-7.2,6-14.4,11.9-21.5,17.9c-1.5,1.2,0.6,3.3,2.1,2.1c7.2-6,14.4-11.9,21.5-17.9
				C1332.5,1043.3,1330.3,1041.1,1328.9,1042.4L1328.9,1042.4z" style="fill:#E8E8E8;"/>
		</g>
	</g>
	<g>
		<g>
			<path d="M1308.3,1063.5c1.9,0,1.9-3,0-3C1306.4,1060.5,1306.4,1063.5,1308.3,1063.5L1308.3,1063.5z" style="fill:#E8E8E8;"/>
		</g>
	</g>
	<g>
		<g>
			<path d="M1338.8,1060.5c-60.9,0-121.8,0-182.7,0c-1.9,0-1.9,3,0,3c60.9,0,121.8,0,182.7,0
				C1340.7,1063.5,1340.7,1060.5,1338.8,1060.5L1338.8,1060.5z" style="fill:#E8E8E8;"/>
		</g>
	</g>
	<g>
		<g>
			<path d="M1155.8,1091.5c10.8-9,21.9-17.6,33.3-25.9c1.5-1.1,0.1-3.7-1.5-2.6c-11.6,8.4-22.9,17.2-33.9,26.3
				C1152.2,1090.6,1154.3,1092.7,1155.8,1091.5L1155.8,1091.5z" style="fill:#E8E8E8;"/>
		</g>
	</g>
	<g>
		<g>
			<path d="M245.4,1036.9c70.6,0,141.2,0,211.8,0c20,0,40,0,60,0c1.9,0,1.9-3,0-3c-70.6,0-141.2,0-211.8,0
				c-20,0-40,0-60,0C243.5,1033.9,243.5,1036.9,245.4,1036.9L245.4,1036.9z" style="fill:#E8E8E8;"/>
		</g>
	</g>
	<g>
		<g>
			<path d="M282.3,1063c9.5-8.1,19.1-16.2,28.6-24.3c1.5-1.3-0.7-3.4-2.1-2.1c-9.5,8.1-19.1,16.2-28.6,24.3
				C278.7,1062.1,280.9,1064.3,282.3,1063L282.3,1063z" style="fill:#E8E8E8;"/>
		</g>
	</g>
	<g>
		<g>
			<path d="M247.9,1065.9c65.6,0,131.2,0,196.8,0c1.9,0,1.9-3,0-3c-65.6,0-131.2,0-196.8,0
				C246,1062.9,246,1065.9,247.9,1065.9L247.9,1065.9z" style="fill:#E8E8E8;"/>
		</g>
	</g>
	<g>
		<g>
			<path d="M421.8,1065.3c-7.5,8.4-15.2,16.6-23,24.8c-1.3,1.4,0.8,3.5,2.1,2.1c7.8-8.2,15.4-16.4,23-24.8
				C425.3,1066,423.1,1063.9,421.8,1065.3L421.8,1065.3z" style="fill:#E8E8E8;"/>
		</g>
	</g>
	<g>
		<g>
			<path d="M370.6,1094.9c57.7,0,115.3,0,173,0c1.9,0,1.9-3,0-3c-57.7,0-115.3,0-173,0
				C368.7,1091.9,368.7,1094.9,370.6,1094.9L370.6,1094.9z" style="fill:#E8E8E8;"/>
		</g>
	</g>
	<g>
		<g>
			<path d="M329.7,986.6c24.4,0,48.8,0,73.3,0c1.9,0,1.9-3,0-3c-24.4,0-48.8,0-73.3,0
				C327.8,983.6,327.8,986.6,329.7,986.6L329.7,986.6z" style="fill:#E8E8E8;"/>
		</g>
	</g>
	<g>
		<g>
			<path d="M421.5,996.4c7.5,0,15.1,0,22.6,0c1.9,0,1.9-3,0-3c-7.5,0-15.1,0-22.6,0
				C419.5,993.4,419.5,996.4,421.5,996.4L421.5,996.4z" style="fill:#E8E8E8;"/>
		</g>
	</g>
	<g>
		<g>
			<path d="M367.2,461.7c0,16.3,0,32.7,0,49c0,1.9,3,1.9,3,0c0-16.3,0-32.7,0-49C370.2,459.8,367.2,459.8,367.2,461.7
				L367.2,461.7z" style="fill:#E8E8E8;"/>
		</g>
	</g>
	<g>
		<g>
			<path d="M316.9,513.1c40.2,0,80.4,0,120.6,0c1.9,0,1.9-3,0-3c-40.2,0-80.4,0-120.6,0
				C315,510.1,315,513.1,316.9,513.1L316.9,513.1z" style="fill:#E8E8E8;"/>
		</g>
	</g>
	<g>
		<g>
			<path d="M401.1,514.5c0,12.6,0,25.1,0,37.7c0,1.9,3,1.9,3,0c0-12.6,0-25.1,0-37.7
				C404.1,512.5,401.1,512.5,401.1,514.5L401.1,514.5z" style="fill:#E8E8E8;"/>
		</g>
	</g>
	<g>
		<g>
			<path d="M367.8,557.4c32,0,64.1,0,96.1,0c1.9,0,1.9-3,0-3c-32,0-64.1,0-96.1,0C365.8,554.4,365.8,557.4,367.8,557.4
				L367.8,557.4z" style="fill:#E8E8E8;"/>
		</g>
	</g>
	<g>
		<g>
			<path d="M1174.8,426.6c0,4,0,7.9,0,11.9c0,1.9,3,1.9,3,0c0-4,0-7.9,0-11.9C1177.8,424.7,1174.8,424.7,1174.8,426.6
				L1174.8,426.6z" style="fill:#E8E8E8;"/>
		</g>
	</g>
	<g>
		<g>
			<path d="M1177.2,429c68.8,0,137.6,0,206.4,0c1.9,0,1.9-3,0-3c-68.8,0-137.6,0-206.4,0
				C1175.3,426,1175.3,429,1177.2,429L1177.2,429z" style="fill:#E8E8E8;"/>
		</g>
	</g>
	<g>
		<g>
			<path d="M1179,440c68.2,0,136.4,0,204.5,0c1.9,0,1.9-3,0-3c-68.2,0-136.4,0-204.5,0C1177.1,437,1177.1,440,1179,440
				L1179,440z" style="fill:#E8E8E8;"/>
		</g>
	</g>
	<g>
		<g>
			<path d="M1383.1,426.6c-0.4,4.1-0.2,8.2,0.5,12.3c0.3,1.9,3.2,1.1,2.9-0.8c-0.7-3.8-0.8-7.7-0.4-11.5
				C1386.3,424.7,1383.3,424.7,1383.1,426.6L1383.1,426.6z" style="fill:#E8E8E8;"/>
		</g>
	</g>
	<g>
		<g>
			<path d="M1191.3,426.7c0-27.9,0-55.8,0-83.7c0-1.9-3-1.9-3,0c0,27.9,0,55.8,0,83.7
				C1188.3,428.7,1191.3,428.7,1191.3,426.7L1191.3,426.7z" style="fill:#E8E8E8;"/>
		</g>
	</g>
	<g>
		<g>
			<path d="M1191.3,343.5c8.5-3.4,17.5-2.9,25.4,1.8c1.7,1,3.2-1.6,1.5-2.6c-8.5-5-18.6-5.8-27.7-2.1
				C1188.7,341.3,1189.5,344.2,1191.3,343.5L1191.3,343.5z" style="fill:#E8E8E8;"/>
		</g>
	</g>
	<g>
		<g>
			<path d="M1216.2,344.6c0,26.8,0,53.7,0,80.5c0,1.9,3,1.9,3,0c0-26.8,0-53.7,0-80.5
				C1219.2,342.7,1216.2,342.7,1216.2,344.6L1216.2,344.6z" style="fill:#E8E8E8;"/>
		</g>
	</g>
	<g>
		<g>
			<path d="M1219.6,367c6.1-2.5,12.5-2.1,18.2,1.4c1.7,1,3.2-1.6,1.5-2.6c-6.3-3.8-13.7-4.5-20.5-1.7
				C1217,364.8,1217.8,367.7,1219.6,367L1219.6,367z" style="fill:#E8E8E8;"/>
		</g>
	</g>
	<g>
		<g>
			<path d="M1237.2,368.3c0,18.8,0,37.5,0,56.3c0,1.9,3,1.9,3,0c0-18.8,0-37.5,0-56.3
				C1240.2,366.4,1237.2,366.4,1237.2,368.3L1237.2,368.3z" style="fill:#E8E8E8;"/>
		</g>
	</g>
	<g>
		<g>
			<path d="M1191.7,366.5c8.5-1.9,16.9-1.3,25.1,1.6c1.8,0.6,2.6-2.3,0.8-2.9c-8.7-3.1-17.7-3.5-26.7-1.6
				C1189.1,364,1189.9,366.9,1191.7,366.5L1191.7,366.5z" style="fill:#E8E8E8;"/>
		</g>
	</g>
	<g>
		<g>
			<path d="M1217.5,401.2c6.4-1.7,12.8-1.9,19.3-0.5c1.9,0.4,2.7-2.5,0.8-2.9c-7-1.5-13.9-1.4-20.9,0.5
				C1214.9,398.8,1215.6,401.7,1217.5,401.2L1217.5,401.2z" style="fill:#E8E8E8;"/>
		</g>
	</g>
	<g>
		<g>
			<path d="M1275,425.7c0-5.6,0-11.2,0-16.8c0-1.9-3-1.9-3,0c0,5.6,0,11.2,0,16.8C1272,427.6,1275,427.6,1275,425.7
				L1275,425.7z" style="fill:#E8E8E8;"/>
		</g>
	</g>
	<g>
		<g>
			<path d="M1273.5,409.8c32.5,0,64.9,0,97.4,0c1.9,0,1.9-3,0-3c-32.5,0-64.9,0-97.4,0
				C1271.5,406.8,1271.5,409.8,1273.5,409.8L1273.5,409.8z" style="fill:#E8E8E8;"/>
		</g>
	</g>
	<g>
		<g>
			<path d="M1371.9,411.4c1.9,0,1.9-3,0-3C1369.9,408.4,1369.9,411.4,1371.9,411.4L1371.9,411.4z" style="fill:#E8E8E8;"/>
		</g>
	</g>
	<g>
		<g>
			<path d="M1370.4,409.9c0,5.1,0,10.2,0,15.3c0,1.9,3,1.9,3,0c0-5.1,0-10.2,0-15.3C1373.4,408,1370.4,408,1370.4,409.9
				L1370.4,409.9z" style="fill:#E8E8E8;"/>
		</g>
	</g>
	<g>
		<g>
			<path d="M1293.9,407.8c0-5.3,0-10.5,0-15.8c0-1.9-3-1.9-3,0c0,5.3,0,10.5,0,15.8
				C1290.9,409.7,1293.9,409.7,1293.9,407.8L1293.9,407.8z" style="fill:#E8E8E8;"/>
		</g>
	</g>
	<g>
		<g>
			<path d="M1292.4,393c31.9,0,63.8,0,95.8,0c1.9,0,1.9-3,0-3c-31.9,0-63.8,0-95.8,0C1290.5,390,1290.5,393,1292.4,393
				L1292.4,393z" style="fill:#E8E8E8;"/>
		</g>
	</g>
	<g>
		<g>
			<path d="M1387.2,391.5c0,4.4,0,8.8,0,13.2c0,1.9,3,1.9,3,0c0-4.4,0-8.8,0-13.2
				C1390.2,389.5,1387.2,389.5,1387.2,391.5L1387.2,391.5z" style="fill:#E8E8E8;"/>
		</g>
	</g>
	<g>
		<g>
			<path d="M1369.8,410.3c5.8,0,11.6,0,17.4,0c1.9,0,1.9-3,0-3c-5.8,0-11.6,0-17.4,0
				C1367.8,407.3,1367.8,410.3,1369.8,410.3L1369.8,410.3z" style="fill:#E8E8E8;"/>
		</g>
	</g>
	<g>
		<g>
			<path d="M1387,404.8c-0.2,1.1-0.2,2.1,0.1,3.1c0.2,0.8,1.1,1.3,1.8,1c0.8-0.2,1.3-1.1,1-1.8
				c-0.1-0.5-0.2-1.1-0.1-1.5c0.1-0.8-0.2-1.7-1-1.8C1388.1,403.6,1387.1,404,1387,404.8L1387,404.8z" style="fill:#E8E8E8;"/>
		</g>
	</g>
	<g>
		<g>
			<path d="M1315.2,392.2c1.3,5.1,1.6,10.3,0.9,15.6c-0.2,1.9,2.8,1.9,3,0c0.7-5.5,0.3-11-1-16.4
				C1317.6,389.6,1314.7,390.4,1315.2,392.2L1315.2,392.2z" style="fill:#E8E8E8;"/>
		</g>
	</g>
	<g>
		<g>
			<path d="M1337.8,409.6c0.7,5,0.3,9.9-0.9,14.7c-0.5,1.9,2.4,2.7,2.9,0.8c1.4-5.4,1.7-10.8,0.9-16.3
				C1340.5,406.9,1337.6,407.7,1337.8,409.6L1337.8,409.6z" style="fill:#E8E8E8;"/>
		</g>
	</g>
	<g>
		<g>
			<path d="M1318.2,531.3c0,7.9,0,15.7,0,23.6c0,1.9,3,1.9,3,0c0-7.9,0-15.7,0-23.6
				C1321.2,529.3,1318.2,529.3,1318.2,531.3L1318.2,531.3z" style="fill:#E8E8E8;"/>
		</g>
	</g>
	<g>
		<g>
			<path d="M1295,555.3c20,0,40,0,60,0c1.9,0,1.9-3,0-3c-20,0-40,0-60,0C1293.1,552.3,1293.1,555.3,1295,555.3
				L1295,555.3z" style="fill:#E8E8E8;"/>
		</g>
	</g>
	<g>
		<g>
			<path d="M1260.9,218.9c0,18,0,36.1,0,54.1c0,1.9,3,1.9,3,0c0-18,0-36.1,0-54.1C1263.9,217,1260.9,217,1260.9,218.9
				L1260.9,218.9z" style="fill:#E8E8E8;"/>
		</g>
	</g>
	<g>
		<g>
			<path d="M1264.7,218.8c22.8,0,45.5,0,68.3,0c1.9,0,1.9-3,0-3c-22.8,0-45.5,0-68.3,0
				C1262.8,215.8,1262.8,218.8,1264.7,218.8L1264.7,218.8z" style="fill:#E8E8E8;"/>
		</g>
	</g>
	<g>
		<g>
			<path d="M1333.1,218.4c0,17.4,0,34.8,0,52.1c0,1.9,3,1.9,3,0c0-17.4,0-34.8,0-52.1
				C1336.1,216.5,1333.1,216.5,1333.1,218.4L1333.1,218.4z" style="fill:#E8E8E8;"/>
		</g>
	</g>
	<g>
		<g>
			<path d="M1262,274.7c24.2,0,48.4,0,72.6,0c1.9,0,1.9-3,0-3c-24.2,0-48.4,0-72.6,0
				C1260.1,271.7,1260.1,274.7,1262,274.7L1262,274.7z" style="fill:#E8E8E8;"/>
		</g>
	</g>
	<g>
		<g>
			<path d="M1267.6,225.1c0,13.7,0,27.3,0,41c0,1.9,3,1.9,3,0c0-13.7,0-27.3,0-41
				C1270.6,223.2,1267.6,223.2,1267.6,225.1L1267.6,225.1z" style="fill:#E8E8E8;"/>
		</g>
	</g>
	<g>
		<g>
			<path d="M1269.8,226.3c18.7,0,37.5,0,56.2,0c1.9,0,1.9-3,0-3c-18.7,0-37.5,0-56.2,0
				C1267.9,223.3,1267.9,226.3,1269.8,226.3L1269.8,226.3z" style="fill:#E8E8E8;"/>
		</g>
	</g>
	<g>
		<g>
			<path d="M1324.9,225.1c0,12.7,0,25.3,0,38c0,1.9,3,1.9,3,0c0-12.7,0-25.3,0-38
				C1327.9,223.2,1324.9,223.2,1324.9,225.1L1324.9,225.1z" style="fill:#E8E8E8;"/>
		</g>
	</g>
	<g>
		<g>
			<path d="M1269.8,267.6c18.6,0,37.2,0,55.9,0c1.9,0,1.9-3,0-3c-18.6,0-37.2,0-55.9,0
				C1267.9,264.6,1267.9,267.6,1269.8,267.6L1269.8,267.6z" style="fill:#E8E8E8;"/>
		</g>
	</g>
	<g>
		<g>
			<path d="M1305.2,249.6c-7.9-6,3.9-18.5,9.4-11c5.1,6.8-3.2,15-10.3,11.2c-1.7-0.9-3.2,1.7-1.5,2.6
				c4.6,2.5,10.7,1.8,14-2.5c3.4-4.3,3-11.1-1.3-14.7c-4.5-3.7-10.9-1.2-14,3c-3.3,4.6-2.3,10.6,2.2,14
				C1305.3,253.3,1306.7,250.7,1305.2,249.6L1305.2,249.6z" style="fill:#E8E8E8;"/>
		</g>
	</g>
	<g>
		<g>
			<path d="M1295.7,264.4c-0.4-7.9,9.3-10.9,15.4-10.9c7.5,0,9.9,6.7,13,12.4c0.9,1.7,3.5,0.2,2.6-1.5
				c-2.1-3.8-4.1-8.8-7.6-11.6c-3.2-2.5-7.2-2.4-11-2c-7,0.8-15.9,5.1-15.4,13.6C1292.8,266.3,1295.8,266.3,1295.7,264.4
				L1295.7,264.4z" style="fill:#E8E8E8;"/>
		</g>
	</g>
	<g>
		<g>
			<path d="M1271.1,257.2c2.2-4.1,10.3-2.5,13.3-0.9c3.1,1.7,4.9,4.5,5.7,7.9c0.4,1.9,3.3,1.1,2.9-0.8
				c-1.2-5.2-4.8-9.3-10-11c-4.4-1.4-11.9-1.5-14.4,3.2C1267.6,257.4,1270.2,258.9,1271.1,257.2L1271.1,257.2z" style="fill:#E8E8E8;"/>
		</g>
	</g>
	<g>
		<g>
			<path d="M1276.9,249.8c-3.3-0.1-2.5-5-1.1-6.7c1.8-2.2,5.4-2.5,7.5-0.4c1.7,1.6,2.2,4.6,0.8,6.5
				c-1,1.4-2.5,1.7-4.1,1.7c-0.6,0-3.1,0.1-3.5-0.4c-1.1-1.6-3.7-0.1-2.6,1.5c1.2,1.8,3.7,1.9,5.7,1.9c2.4,0.1,4.7-0.5,6.4-2.3
				c3.2-3.5,2.1-9.4-1.7-12c-4.1-2.7-9.8-1.2-11.9,3.2c-1.8,3.9-0.5,9.8,4.5,9.9C1278.9,252.9,1278.9,249.9,1276.9,249.8
				L1276.9,249.8z" style="fill:#E8E8E8;"/>
		</g>
	</g>
</g>
<g id="icons">
	<g>
		<g>
			<path d="M664.9,484.7c4.7,3.8,10.5,2.2,14.9-1.5c6.2-5.1,9.3-13.8,10.5-21.5c3.1-19.6-4.8-38.2-7.9-57.2
				c-5.6-35.3,9.8-73.1,38.4-94.3c13.9-10.4,36.8-21.5,31.4-42.8c-0.5-1.9-3.4-1.1-2.9,0.8c5.1,20.3-18.5,30.6-31.4,40.4
				c-11.6,8.9-21,20.4-27.7,33.3c-6.6,12.5-10.6,26.4-11.7,40.5c-1.3,17.1,3.2,33,6.9,49.5c2.2,10,3.6,20.5,1.7,30.7
				c-0.9,4.7-2.5,9.3-5,13.4c-2.8,4.4-9.5,11.2-15.1,6.7C665.6,481.4,663.4,483.5,664.9,484.7L664.9,484.7z" style="fill:#E8E8E8;"/>
		</g>
	</g>
	<g>
		<g>
			<path d="M751.1,266.2c-11.3,0.5-21.2-8.3-20.6-19.9c0.6-12.1,14.9-23.3,27-20.1c10.8,2.9,19.1,14.8,16.4,25.9
				c-2.7,11.1-15.2,13.5-24.8,15.1c-1.9,0.3-1.1,3.2,0.8,2.9c12.4-2,26.8-6.4,27.6-21.4c0.6-12.2-10.3-25.4-22.8-25.9
				c-13.2-0.6-26.5,10.2-27.2,23.6c-0.6,13.2,10.7,23.4,23.6,22.9C753,269.1,753,266.1,751.1,266.2L751.1,266.2z" style="fill:#E8E8E8;"/>
		</g>
	</g>
	<g>
		<g>
			<path d="M736.3,258.4c4.8-12.1,30.4-14.1,33.4,0.3c0.4,1.9,3.3,1.1,2.9-0.8c-3.7-17.6-33.4-15-39.2-0.3
				C732.7,259.4,735.6,260.1,736.3,258.4L736.3,258.4z" style="fill:#E8E8E8;"/>
		</g>
	</g>
	<g>
		<g>
			<path d="M751.3,244.9c-2.1-1.5-2.9-4.4-1.5-6.6c1.6-2.7,5-3,7.6-1.6c2,1.1,2.4,3.6,1.2,5.5c-1.5,2.3-4.7,2.6-7.2,2
				c-1.9-0.4-2.7,2.5-0.8,2.9c4,0.9,8.8,0,10.8-3.9c1.8-3.5,0.5-7.7-3.1-9.4c-4-1.8-8.8-1-11.1,2.9c-2.3,3.7-0.8,8.3,2.6,10.7
				C751.4,248.7,752.9,246.1,751.3,244.9L751.3,244.9z" style="fill:#E8E8E8;"/>
		</g>
	</g>
	<g>
		<g>
			<path d="M793.7,214.1c10.5-27.8,40.7-42,68.8-43.9c18.6-1.3,37.2,1.6,55.4,5.1c17.2,3.4,35.1,8.8,52.7,8.2
				c14.5-0.5,29.4-6.5,36.2-20c0.9-1.7-1.7-3.2-2.6-1.5c-7.9,15.6-26.1,19.6-42.2,18.3c-18.8-1.5-37.3-7.1-55.8-10.2
				c-30-5-62-5.7-88.7,11.2c-12.1,7.7-21.7,18.5-26.8,32C790.1,215.1,793,215.9,793.7,214.1L793.7,214.1z" style="fill:#E8E8E8;"/>
		</g>
	</g>
	<g>
		<g>
			<path d="M1018.9,161.8c26.4,0,52.9,0,79.3,0c1.9,0,1.9-3,0-3c-26.4,0-52.9,0-79.3,0
				C1016.9,158.8,1016.9,161.8,1018.9,161.8L1018.9,161.8z" style="fill:#E8E8E8;"/>
		</g>
	</g>
	<g>
		<g>
			<path d="M1017.8,158.6c-4.7-4.6,0.4-12.4,4.1-15.9c4.5-4.4,10.7-6.1,16.7-3.7c0.5,0.2,1.5-0.1,1.7-0.7
				c3.6-8.4,12.1-14.5,21.4-14.1c9.7,0.4,17.9,7.7,20.3,16.9c0.2,0.9,1.4,1.4,2.2,0.9c4.4-2.7,8.9,0.5,10.7,4.6
				c1.6,3.8,1.2,8.1,0.8,12.2c-0.2,1.9,2.8,1.9,3,0c0.6-6,1-13.1-3.8-17.7c-3.4-3.2-8.1-4.2-12.1-1.7c0.7,0.3,1.5,0.6,2.2,0.9
				c-2.7-10-11.3-18-21.8-19c-10.8-1.1-21.2,5.6-25.4,15.5c0.6-0.2,1.1-0.5,1.7-0.7c-8-3.2-16.4,0.2-21.6,6.8
				c-3.9,4.9-7.3,12.8-2,17.9C1017.1,162.1,1019.2,160,1017.8,158.6L1017.8,158.6z" style="fill:#E8E8E8;"/>
		</g>
	</g>
	<g>
		<g>
			<path d="M1074.7,173.3c12.3-1.4,19.5,11.5,21.4,21.9c2,10.7,0.1,21.4-1,32.1c-1.7,16.1-0.6,35.5,14.7,44.9
				c1.6,1,3.2-1.6,1.5-2.6c-20.9-12.8-12.2-41.3-11.4-60.9c0.6-14.9-5.3-40.6-25.2-38.4C1072.8,170.5,1072.8,173.5,1074.7,173.3
				L1074.7,173.3z" style="fill:#E8E8E8;"/>
		</g>
	</g>
	<g>
		<g>
			<path d="M1126.4,255.3c-9,22.7-17.9,45.4-26.9,68c-0.7,1.8,2.2,2.6,2.9,0.8c9-22.7,17.9-45.4,26.9-68
				C1130,254.3,1127.1,253.6,1126.4,255.3L1126.4,255.3z" style="fill:#E8E8E8;"/>
		</g>
	</g>
	<g>
		<g>
			<path d="M1127.8,257.2c15.6-0.8,31.1-0.4,46.6,1.4c-0.5-0.6-1-1.3-1.4-1.9c-7.4,23.7-13.4,47.7-18.2,72
				c-0.4,1.9,2.5,2.7,2.9,0.8c4.8-24.3,10.9-48.3,18.2-72c0.3-1-0.5-1.8-1.4-1.9c-15.5-1.8-31-2.2-46.6-1.4
				C1125.9,254.3,1125.9,257.3,1127.8,257.2L1127.8,257.2z" style="fill:#E8E8E8;"/>
		</g>
	</g>
	<g>
		<g>
			<path d="M1100.2,326.2c9.2,0.4,18.3,0.9,27.5,1.5c8.9,0.5,18.4,0.3,26.8,3.7c1.8,0.7,2.6-2.2,0.8-2.9
				c-8-3.3-17.1-3.1-25.6-3.6c-9.8-0.6-19.6-1.1-29.5-1.6C1098.3,323.1,1098.3,326.1,1100.2,326.2L1100.2,326.2z" style="fill:#E8E8E8;"/>
		</g>
	</g>
	<g>
		<g>
			<path d="M1129.2,267.2c9.6,0.2,19.2,0.9,28.7,2.2c1.9,0.3,2.7-2.6,0.8-2.9c-9.8-1.4-19.6-2.2-29.5-2.4
				C1127.2,264.1,1127.2,267.1,1129.2,267.2L1129.2,267.2z" style="fill:#E8E8E8;"/>
		</g>
	</g>
	<g>
		<g>
			<path d="M1126.3,274c5.4-0.2,10.8-0.1,16.2,0.4c1.9,0.2,1.9-2.8,0-3c-5.4-0.5-10.8-0.7-16.2-0.4
				C1124.4,271.1,1124.4,274.1,1126.3,274L1126.3,274z" style="fill:#E8E8E8;"/>
		</g>
	</g>
	<g>
		<g>
			<path d="M1119.7,287.5c11.5-0.7,22.4-1.7,33.7,1.1c1.9,0.5,2.7-2.4,0.8-2.9c-11.6-2.8-22.7-1.9-34.5-1.2
				C1117.7,284.6,1117.7,287.6,1119.7,287.5L1119.7,287.5z" style="fill:#E8E8E8;"/>
		</g>
	</g>
	<g>
		<g>
			<path d="M1120.2,296.3c6.6-0.5,13.2-0.5,19.8,0.1c1.9,0.2,1.9-2.8,0-3c-6.6-0.6-13.2-0.6-19.8-0.1
				C1118.3,293.5,1118.2,296.5,1120.2,296.3L1120.2,296.3z" style="fill:#E8E8E8;"/>
		</g>
	</g>
	<g>
		<g>
			<path d="M1115,307.9c9-0.6,17.8-0.3,26.7,0.9c1.9,0.3,1.9-2.7,0-3c-8.9-1.2-17.8-1.5-26.7-0.9
				C1113.1,305,1113.1,308,1115,307.9L1115,307.9z" style="fill:#E8E8E8;"/>
		</g>
	</g>
	<g>
		<g>
			<path d="M617.4,173.7c4,5.4,9.8,7.6,15.7,10.3c7,3.2,13.4,7.5,18.6,13.2c11.8,12.7,15.7,29.8,16,46.7
				c0.7,31.7-10,64.9,4.4,94.9c0.8,1.7,3.4,0.2,2.6-1.5c-15.1-31.6-1.7-67-4.3-100.2c-1.1-14.4-5.2-28.5-14.5-39.7
				c-4.4-5.3-9.8-9.9-15.8-13.3c-6.7-3.8-15.4-5.5-20.1-11.9C618.9,170.7,616.3,172.2,617.4,173.7L617.4,173.7z" style="fill:#E8E8E8;"/>
		</g>
	</g>
	<g>
		<g>
			<path d="M583.2,131.4c-2.6-3.3-2.4-5.6,0.6-6.9c1.3-0.7,2.6-1.2,4.1-1.5c1.9-0.4,4-0.5,6-0.4
				c6,0.3,12.1,1.9,11.8,9.2c-0.3,8.6-1.9,17.1-4,25.4c-2.2,8.5-4.9,16.8-7.8,25.1c-0.6,1.8-1.1,3.9-2,5.6c-1.8,3.1-4.6,3-7.6,3
				c-3.7,0-8.4,0.5-12-0.5c-4-1.1-4.9-5.1-1-7.7c1.8-1.2,4.3-1.4,6.4-1.4c2.7,0,5.1,0.6,7.4-1.2c4.4-3.4,5.1-12.6,6.1-17.5
				c1.5-7.1,4-15.8,3.5-23c-0.4-5.5-5.8-5.7-9.7-8c-1.7-1-3.2,1.6-1.5,2.6c3.1,1.8,7.6,2,8.2,6.1c0.7,4.8-1.3,11.3-2.2,16.1
				c-0.9,4.6-1.9,9.2-3.1,13.7c-0.9,3.4-1.3,7.5-5.8,8.4c-1.8,0.4-4-0.2-5.9,0.1c-4.8,0.7-9.5,4.1-8.8,9.5c0.9,6.8,9,5.6,14,5.8
				c6.2,0.2,12.4,1.1,15.2-5.5c3.5-8.2,6-17.2,8.4-25.7c2.5-8.8,4.4-17.9,5.1-27c0.6-7.1,0.9-12.8-7-14.7
				c-6.9-1.7-16.4-2.5-21.8,3.1c-3.6,3.7-2.7,11,3.5,10.5C585.1,134.2,585.1,131.2,583.2,131.4L583.2,131.4z" style="fill:#E8E8E8;"/>
		</g>
	</g>
	<g>
		<g>
			<path d="M571.1,142.1c-0.1-0.1-0.2-0.2-0.3-0.3c-0.4-0.4-1-0.5-1.5-0.4c-2.9,1-4,5.7-4.8,8.3
				c-1.4,4.8-1.7,9.7-1,14.7c0.2,1.9,3.2,1.9,3,0c-0.4-3.5-0.5-6.9,0.1-10.4c0.3-1.8,3.4-8.8,2.3-9.8
				C570.3,145.6,572.4,143.5,571.1,142.1L571.1,142.1z" style="fill:#E8E8E8;"/>
		</g>
	</g>
	<g>
		<g>
			<path d="M561,131.1c-9.2,11.7-15.1,25.8-11.2,40.8c0.5,1.9,3.4,1.1,2.9-0.8c-3.6-13.8,2-27.1,10.4-37.9
				C564.3,131.7,562.2,129.6,561,131.1L561,131.1z" style="fill:#E8E8E8;"/>
		</g>
	</g>
	<g>
		<g>
			<path d="M548.4,117.6c-15.3,20.1-22.5,45.5-19.9,70.7c0.2,1.9,3.2,1.9,3,0c-2.5-24.7,4.4-49.4,19.5-69.2
				C552.1,117.6,549.5,116.1,548.4,117.6L548.4,117.6z" style="fill:#E8E8E8;"/>
		</g>
	</g>
	<g>
		<g>
			<path d="M527.1,219.8c-7.7,3.7-14.9,8.8-20.6,15.2c-5.8,6.6-7.6,13.7-8.5,22.3c-2,19.7-9.3,41.3-29.1,49.6
				c-1.8,0.7-1,3.6,0.8,2.9c15.8-6.6,25-21.6,28.9-37.8c2.3-9.7,1.2-21.2,6.3-29.9c5.2-8.9,14.6-15.4,23.7-19.8
				C530.4,221.6,528.9,219,527.1,219.8L527.1,219.8z" style="fill:#E8E8E8;"/>
		</g>
	</g>
	<g>
		<g>
			<path d="M426.6,360c-6.6,0.2-14.1-2.6-16.5-9.4c-2.8-8,3.2-15.8,9.6-19.9c12.4-8,29.1-11.1,43.5-11.3
				c7.3-0.1,15.6,0,22,3.9c8.2,5,9.6,14.4,3.2,21.5c-9.7,10.8-26.4,11.9-39.8,12.9c-1.9,0.1-1.9,3.1,0,3c13.4-1,28.4-2.2,39.2-11.2
				c9.9-8.2,10.6-21.8-1-28.9c-12-7.3-30.3-4.9-43.3-2.1c-12.5,2.7-29.6,7.6-35.2,20.5c-5.8,13.2,5.3,24.2,18.5,23.8
				C428.6,362.9,428.6,359.9,426.6,360L426.6,360z" style="fill:#E8E8E8;"/>
		</g>
	</g>
	<g>
		<g>
			<path d="M426.1,361.2c-2.5,4-4.9,8-7.4,11.9c-0.8,1.3,0.8,2.7,2.1,2.1c6.1-3.3,12.7-5.4,18.9-8.3
				c3.4-1.5,6.7-3.3,9.9-5.3c1.1-0.7,2.4-1.1,2.7-2.5c0.2-0.7-0.2-1.7-1-1.8c-0.1,0-0.2,0-0.3-0.1c-0.7-0.1-1.7,0.2-1.8,1
				c0,0.1,0,0.1,0,0.2c-0.4,1.9,2.5,2.7,2.9,0.8c0-0.1,0-0.1,0-0.2c-0.6,0.3-1.2,0.7-1.8,1c0.1,0,0.2,0,0.3,0.1
				c-0.3-0.6-0.7-1.2-1-1.8c-0.3,1-5.9,3.3-7.1,4c-3,1.6-6.1,2.9-9.3,4.2c-4.7,1.9-9.3,3.7-13.7,6.1c0.7,0.7,1.4,1.4,2.1,2.1
				c2.5-4,4.9-8,7.4-11.9C429.7,361.1,427.1,359.6,426.1,361.2L426.1,361.2z" style="fill:#E8E8E8;"/>
		</g>
	</g>
	<g>
		<g>
			<path d="M429.4,343.9c-0.1-0.2-0.1-0.6,0.2-0.6c0.8,0-0.1,1-0.2,1.1c-0.5,0.3-2.2,0.7-2.1-0.3
				c0.1-1.2,2.4-2.5,2.8-0.7c0.1,0.5-0.3,1.1-0.8,1.2c-0.3,0.1-0.5,0.1-0.7-0.1c-0.1-0.1-0.3-0.2-0.1-0.2c1.9,0.1,1.9-2.9,0-3
				c-2-0.2-3.5,1.9-3,3.8c0.5,1.9,2.7,2.9,4.5,2.4c1.8-0.5,3.2-2.1,3.2-4c0-1.9-1.5-3.5-3.2-3.9c-3.7-0.9-7.6,4.5-4.4,7.2
				c2.6,2.2,7.8,0.2,7.5-3.5c-0.2-2-2.4-3.6-4.4-2.9c-2,0.7-2.8,3.2-1.8,5C427.7,347.1,430.3,345.6,429.4,343.9L429.4,343.9z" style="fill:#E8E8E8;"/>
		</g>
	</g>
	<g>
		<g>
			<path d="M451.5,341.2c-0.1-0.6-0.4-1.4,0.2-1.9c0.3-0.3,0.8-0.3,1.2-0.3c1,0.2,0.8,1.3,0.1,1.8
				c-0.4,0.3-0.8,0.3-1.1-0.1c-0.3-0.4-0.2-0.5,0.1-0.7c0.2-0.1-0.4,0,0.1-0.1c1.2-0.2-0.8,1.2-0.5,0.2c-0.6,1.9,2.3,2.6,2.9,0.8
				c0.5-1.8-1.2-3.6-3-3.3c-2.1,0.4-2.6,2.9-1.3,4.4c1.2,1.4,3.4,1.1,4.3-0.5c0.9-1.6,0.3-3.7-1.5-4.3c-1.8-0.6-3.8,0.5-4.2,2.3
				c-0.5,2,0.9,4,2.9,4.5c3.6,0.8,6.6-4.1,4-6.8c-1.3-1.3-3.4-1.4-5-0.7c-2.2,1.1-2.3,3.4-1.9,5.5
				C448.9,343.9,451.8,343.1,451.5,341.2L451.5,341.2z" style="fill:#E8E8E8;"/>
		</g>
	</g>
	<g>
		<g>
			<path d="M473.7,334.5c0.4,0,0.8,0.1,1.3,0.1c0,0,0-0.1,0-0.1c0.1-0.1,0.1-0.3,0.2-0.4c0.1-0.2,0.4-0.4,0.6-0.5
				c0.5-0.2,1-0.2,1.3,0.3c0.4,0.8-0.3,2.3-1.3,1.7c-0.6-0.4-0.7-1.4,0.2-1.2c0.2,0,0.3,0.1,0.4,0.2c0,0,0,0.2,0,0
				c0-0.2,0,0.1-0.1,0.1c-0.3,0.2-0.4,0.4-0.7,0.2c-0.7-0.5-1.7-0.1-2.1,0.5c-0.4,0.8-0.1,1.6,0.5,2.1c2.9,2.1,6.8-2.1,4.5-4.9
				c-2.1-2.5-6.6-0.9-6.4,2.4c0.1,1.7,1.4,3.2,3,3.6c1.6,0.4,3.3-0.4,4.2-1.8c2-3.1-0.8-7.4-4.5-6.2c-1.7,0.6-3.2,2.3-3,4.2
				c0.2,2.1,3.2,3.2,4.3,1.1C477.1,334.3,474.6,332.8,473.7,334.5L473.7,334.5z" style="fill:#E8E8E8;"/>
		</g>
	</g>
	<g>
		<g>
			<path d="M534.1,247.3c12.3-6.8,23-15.8,31.9-26.7c1.2-1.5-0.9-3.6-2.1-2.1c-8.7,10.7-19.2,19.5-31.3,26.2
				C530.9,245.6,532.4,248.2,534.1,247.3L534.1,247.3z" style="fill:#E8E8E8;"/>
		</g>
	</g>
	<g>
		<g>
			<path d="M683.7,249.9c-2.2,12.6-3.1,25.3-2.5,38.1c0.1,1.9,3.1,1.9,3,0c-0.6-12.5,0.2-25,2.4-37.3
				C686.9,248.8,684,248,683.7,249.9L683.7,249.9z" style="fill:#E8E8E8;"/>
		</g>
	</g>
	<g>
		<g>
			<path d="M668.4,542.2c0-15.3,7.2-29.8,19.5-39c1.5-1.1,0-3.7-1.5-2.6c-13.2,9.8-20.9,25.1-20.9,41.6
				C665.4,544.1,668.4,544.1,668.4,542.2L668.4,542.2z" style="fill:#E8E8E8;"/>
		</g>
	</g>
</g>








</svg>